HIERARCHY
ROOT Hips
{
    OFFSET 0.000000 0.000000 0.000000
    CHANNELS 6 Xposition Yposition Zposition Zrotation Xrotation Yrotation
    JOINT Spine
    {
        OFFSET -0.000000 8.603107 0.000000
        CHANNELS 3 Zrotation Xrotation Yrotation
        JOINT Spine1
        {
            OFFSET -0.000000 23.906662 0.000000
            CHANNELS 3 Zrotation Xrotation Yrotation
            JOINT Neck
            {
                OFFSET -0.000000 23.808481 2.164407
                CHANNELS 3 Zrotation Xrotation Yrotation
                JOINT Head
                {
                    OFFSET -0.000000 14.688231 -2.098319
                    CHANNELS 3 Zrotation Xrotation Yrotation
                    End Site
                    {
                        OFFSET -0.000000 26.228985 0.000000
                    }
                }
            }
            JOINT LeftShoulder
            {
                OFFSET 4.178941 22.658146 -0.129871
                CHANNELS 3 Zrotation Xrotation Yrotation
                JOINT LeftArm
                {
                    OFFSET 9.497952 0.000000 0.000000
                    CHANNELS 3 Zrotation Xrotation Yrotation
                    JOINT LeftForeArm
                    {
                        OFFSET 38.855015 0.000000 0.000000
                        CHANNELS 3 Zrotation Xrotation Yrotation
                        JOINT LeftHand
                        {
                            OFFSET 24.940550 0.000000 0.000000
                            CHANNELS 3 Zrotation Xrotation Yrotation
                            End Site
                            {
                                OFFSET 15.737392 0.000000 0.000000
                            }
                        }
                    }
                }
            }
            JOINT RightShoulder
            {
                OFFSET -4.145384 22.658146 -0.129871
                CHANNELS 3 Zrotation Xrotation Yrotation
                JOINT RightArm
                {
                    OFFSET -9.497952 0.000000 0.000000
                    CHANNELS 3 Zrotation Xrotation Yrotation
                    JOINT RightForeArm
                    {
                        OFFSET -38.855015 0.000000 0.000000
                        CHANNELS 3 Zrotation Xrotation Yrotation
                        JOINT RightHand
                        {
                            OFFSET -24.940550 0.000000 0.000000
                            CHANNELS 3 Zrotation Xrotation Yrotation
                            End Site
                            {
                                OFFSET -15.737392 0.000000 0.000000
                            }
                        }
                    }
                }
            }
        }
    }
    JOINT LeftUpLeg
    {
        OFFSET 10.491594 0.000000 0.000000
        CHANNELS 3 Zrotation Xrotation Yrotation
        JOINT LeftLeg
        {
            OFFSET -0.000000 -46.080647 0.000000
            CHANNELS 3 Zrotation Xrotation Yrotation
            JOINT LeftFoot
            {
                OFFSET -0.000000 -50.184704 0.000000
                CHANNELS 3 Zrotation Xrotation Yrotation
                JOINT LeftToeBase
                {
                    OFFSET -0.000000 -6.819536 15.737392
                    CHANNELS 3 Zrotation Xrotation Yrotation
                    End Site
                    {
                        OFFSET -0.000000 0.000000 4.196638
                    }
                }
            }
        }
    }
    JOINT RightUpLeg
    {
        OFFSET -10.491594 0.000000 0.000000
        CHANNELS 3 Zrotation Xrotation Yrotation
        JOINT RightLeg
        {
            OFFSET -0.000000 -46.080647 0.000000
            CHANNELS 3 Zrotation Xrotation Yrotation
            JOINT RightFoot
            {
                OFFSET -0.000000 -50.184704 0.000000
                CHANNELS 3 Zrotation Xrotation Yrotation
                JOINT RightToeBase
                {
                    OFFSET -0.000000 -6.819536 15.737392
                    CHANNELS 3 Zrotation Xrotation Yrotation
                    End Site
                    {
                        OFFSET -0.000000 0.000000 4.196638
                    }
                }
            }
        }
    }
}
MOTION
Frames:    7
Frame Time:    0.008333
142.941772    103.554047    37.096466    1.664247    -1.624043    94.778900    0.571024    -6.057886    0.307698    3.142091    2.425097    0.210913    8.706141    23.100967    11.483500    -7.034984    -3.050641    11.355522    14.625404    -0.454855    -9.764282    -18.351299    3.558700    12.016808    2.579159    -2.787302    2.006259    1.096134    -2.828348    0.427618    -15.765408    3.745545    -10.662076    18.317690    -7.390786    -0.282953    -2.390301    -7.262223    0.438794    -9.566769    -6.828550    -5.109145    1.902684    0.987589    0.601155    -2.821355    12.187436    -2.635413    4.137637    -8.854081    11.689152    0.000000    0.000000    0.000000    1.669867    4.728414    -3.571213    1.154219    2.132381    -3.149270    0.414831    -1.327590    -10.617222    0.000000    0.000000    0.000000    
142.953491    103.541962    37.084290    1.757796    -1.610351    94.811607    0.635972    -6.008706    0.319538    3.068380    2.480243    0.219855    8.713054    23.029041    11.498829    -6.977403    -2.925447    11.382882    14.652494    -0.483693    -9.785034    -18.363371    3.591322    12.000909    2.559226    -2.765328    1.988526    1.051855    -2.805315    0.480705    -15.729683    3.736335    -10.712154    18.295803    -7.379544    -0.277176    -2.391333    -7.287620    0.417751    -9.587716    -6.850576    -5.143900    1.896520    1.098702    0.591175    -2.822717    12.166658    -2.608049    4.137637    -8.854081    11.689152    0.000000    0.000000    0.000000    1.658803    4.841120    -3.580110    1.156315    2.122630    -3.130052    0.423867    -1.382766    -10.651038    0.000000    0.000000    0.000000    
142.927704    103.551498    37.085716    1.681853    -1.611622    94.839401    1.001444    -5.821707    0.102315    2.562553    1.948740    0.009139    8.389816    23.548279    11.747799    -6.784909    -3.178807    11.681491    14.410339    -0.248253    -9.399044    -18.024559    3.791632    12.090085    2.593882    -2.769238    1.901571    0.976301    -2.807817    0.521797    -15.719000    3.985687    -10.063416    18.492237    -7.726614    -0.344836    -2.489169    -7.167383    0.385018    -9.605824    -6.734492    -5.087284    1.892403    0.963336    0.603133    -2.812769    12.239660    -2.649844    4.137637    -8.854081    11.689152    0.000000    0.000000    0.000000    1.656851    4.734098    -3.580392    1.155575    2.153970    -3.151338    0.439590    -1.356796    -10.661749    0.000000    0.000000    0.000000    
142.921417    103.550575    37.083252    1.678355    -1.606548    94.861191    1.077057    -5.788627    0.054454    2.462855    1.869981    -0.044310    8.331820    23.628798    11.813705    -6.751449    -3.204231    11.756919    14.367368    -0.218688    -9.289902    -17.969858    3.854947    12.089202    2.622349    -2.799014    1.844059    0.907624    -2.837082    0.518469    -15.720901    4.022733    -9.936854    18.526653    -7.788786    -0.350266    -2.517204    -7.144559    0.358202    -9.620248    -6.713348    -5.065354    1.896151    0.974368    0.591692    -2.834262    12.198950    -2.628555    4.137637    -8.854081    11.689152    0.000000    0.000000    0.000000    1.655891    4.728291    -3.588160    1.145365    2.156586    -3.143915    0.419510    -1.365523    -10.665479    0.000000    0.000000    0.000000    
142.917343    103.549911    37.081127    1.682575    -1.603235    94.890045    1.061884    -5.769509    0.053510    2.512652    1.829033    -0.039956    8.280116    23.707750    11.792295    -6.729112    -3.308116    11.735048    14.300023    -0.196938    -9.336008    -17.945988    3.846785    12.100177    2.653166    -2.809630    1.823533    0.887267    -2.848232    0.463640    -15.748007    4.049829    -9.963387    18.516434    -7.731419    -0.353384    -2.518796    -7.173251    0.369835    -9.665688    -6.738554    -5.079957    1.896612    0.973799    0.588735    -2.834739    12.196659    -2.639583    4.137637    -8.854081    11.689152    0.000000    0.000000    0.000000    1.651773    4.730339    -3.592775    1.151732    2.160326    -3.150672    0.395915    -1.368217    -10.686887    0.000000    0.000000    0.000000    
142.909698    103.547897    37.079357    1.682958    -1.598390    94.921631    1.075555    -5.781116    0.040319    2.488069    1.848593    -0.053200    8.364524    23.727690    11.793075    -6.846959    -3.323245    11.722934    14.324554    -0.201016    -9.337827    -17.968224    3.850705    12.107445    2.661319    -2.816622    1.791827    0.934844    -2.854492    0.455381    -15.733661    4.099929    -10.011622    18.522459    -7.788077    -0.282492    -2.522902    -7.158253    0.373343    -9.682117    -6.723065    -5.075929    1.892817    0.965131    0.579454    -2.830360    12.204760    -2.673635    4.137637    -8.854081    11.689152    0.000000    0.000000    0.000000    1.649245    4.723969    -3.615471    1.153258    2.172755    -3.150798    0.385027    -1.379227    -10.698826    0.000000    0.000000    0.000000    
142.906662    103.547562    37.077400    1.687669    -1.585921    94.943909    1.087408    -5.799084    0.037947    2.457058    1.882369    -0.059103    8.318683    23.654917    11.793837    -6.711107    -3.232615    11.742476    14.332269    -0.218062    -9.346796    -17.977001    3.912992    12.114131    2.650505    -2.841547    1.766602    1.019831    -2.878437    0.443769    -15.726460    4.076825    -10.018254    18.513842    -7.816690    -0.288586    -2.530696    -7.125486    0.367384    -9.695277    -6.691718    -5.052946    1.884187    0.968146    0.569979    -2.835385    12.200203    -2.684339    4.137637    -8.854081    11.689152    0.000000    0.000000    0.000000    1.640261    4.731614    -3.630898    1.152512    2.218350    -3.107859    0.348350    -1.445494    -10.752615    0.000000    0.000000    0.000000    
